<?xml version="1.0" encoding="UTF-8" standalone="no"?>
<svg
   version="1.1"
   viewBox="0 0 449.148 510.001"
   style="enable-background:new 0 0 449.148 510.001;"
   xml:space="preserve"
   id="svg332"
   sodipodi:docname="favicon.svg"
   inkscape:version="1.2.2 (b0a8486, 2022-12-01)"
   xmlns:inkscape="http://www.inkscape.org/namespaces/inkscape"
   xmlns:sodipodi="http://sodipodi.sourceforge.net/DTD/sodipodi-0.dtd"
   xmlns="http://www.w3.org/2000/svg"
   xmlns:svg="http://www.w3.org/2000/svg"><defs
     id="defs336" /><sodipodi:namedview
     id="namedview334"
     pagecolor="#ffffff"
     bordercolor="#666666"
     borderopacity="1.0"
     inkscape:showpageshadow="2"
     inkscape:pageopacity="0.0"
     inkscape:pagecheckerboard="0"
     inkscape:deskcolor="#d1d1d1"
     showgrid="false"
     inkscape:zoom="0.79705726"
     inkscape:cx="32.61999"
     inkscape:cy="417.7868"
     inkscape:window-width="1920"
     inkscape:window-height="1043"
     inkscape:window-x="1920"
     inkscape:window-y="0"
     inkscape:window-maximized="1"
     inkscape:current-layer="g3028" /><g
     id="Layer_1" /><g
     id="g3028"
     transform="matrix(2.5381629,0,0,2.5342058,-581.90987,19.792862)"
     style="stroke-width:0.394293"><g
       id="g3068"
       stroke="#000000"
       style="stroke-width:0.155467"
       transform="translate(169.7648,-9.2336537)"><g
         id="g3075"
         style="stroke-width:0.394293"><g
           id="g3071"
           stroke-width="0.59144"><path
             id="path2986"
             style="color:#000000;text-indent:0;text-transform:none;stroke-width:0.59144"
             d="m 102.62,159.07 c -9.3333,-1.7568 -18.386,4.4282 -20.143,13.761 -1.7567,9.3333 4.434,18.356 13.767,20.112 9.3333,1.7568 18.35,-4.4033 20.107,-13.737 1.7567,-9.3333 -4.3975,-18.381 -13.731,-20.137 z m -0.55492,2.9482 c 7.7399,1.4568 12.794,8.8943 11.337,16.634 -1.4568,7.7399 -8.8636,12.8 -16.604,11.343 -7.7399,-1.4568 -12.831,-8.8693 -11.374,-16.609 1.4568,-7.7399 8.9001,-12.825 16.64,-11.368 z m 77.36,-70.99 c -27.969,-5.2645 -54.949,13.168 -60.214,41.137 -5.2644,27.969 13.168,54.949 41.137,60.214 27.969,5.2644 54.949,-13.168 60.214,-41.137 5.2645,-27.969 -13.168,-54.949 -41.137,-60.214 z m -0.55199,2.9326 c 26.376,4.9645 43.721,30.353 38.757,56.729 -4.9646,26.376 -30.348,43.692 -56.724,38.727 -26.376,-4.9646 -43.697,-30.319 -38.733,-56.694 4.9646,-26.376 30.324,-43.727 56.7,-38.762 z" /><path
             id="path2988"
             style="color:#000000;text-indent:0;text-transform:none;stroke-width:0.59144"
             d="m 170.52,85.582 c -15.16,-2.9969 -34.908,5.9486 -48.198,25.461 -13.671,20.072 -20.68,47.969 -22.519,64.733 l 2.9945,0.30924 c 1.7875,-16.292 8.7943,-43.945 22.002,-63.336 12.807,-18.804 31.732,-26.833 45.296,-24.068 l -1.5068,49.227 c -0.86023,0.41579 -1.5313,1.2088 -1.7216,2.2199 -0.31847,1.6919 0.80686,3.3 2.4988,3.6184 1.6919,0.31846 3.3249,-0.77037 3.6433,-2.4623 0.24707,-1.3126 -0.38048,-2.5773 -1.4586,-3.2318 l 1.552,-50.649 0.0354,-1.2017 -1.1554,-0.28108 c -0.47909,-0.12155 -0.97352,-0.24221 -1.4626,-0.33888 z" /></g><path
           id="path3009"
           style="color:#000000"
           stroke-width="0.788586"
           fill="none"
           d="m 153.7,139.47 32.663,-2.6051" /></g><path
         id="path3066"
         style="color:#000000"
         stroke-width="0.788586"
         fill="none"
         d="m 168.73,138.27 -8.4164,-64.125 15.63,-1.6031" /></g><g
       id="g3132"
       style="stroke-width:0.394293"
       transform="translate(172.6538,-11.294354)"><g
         id="g3059"
         stroke="#000000"
         style="stroke-width:0.155467"><path
           id="path3007"
           stroke-width="0.59144"
           d="m 133.91,9.6875 c -1.5062,0.11882 -3.485,0.6456 -5.5625,1.5938 -4.155,1.8963 -7.1606,4.6851 -6.7188,6.2188 0.6568,1.9759 1.4038,3.9382 2.125,5.8125 -2.4847,1.7266 -3.9035,3.4545 -3.5,4.625 0.71456,2.0729 6.7493,1.6567 13.469,-0.90625 6.7195,-2.563 11.59,-6.3021 10.875,-8.375 -0.42068,-1.2203 -2.7147,-1.5861 -5.875,-1.1562 -0.73872,-2.3174 -1.5438,-4.6394 -2.0312,-6.875 -0.22093,-0.76684 -1.275,-1.0563 -2.7812,-0.9375 z" /><path
           id="path3006"
           style="color:#000000"
           stroke-width="0.29572"
           fill="#cccccf"
           d="m 134.61,39.365 c 3.1173,-2.5505 2.2672,-5.3845 2.2672,-5.3845 5.6535,0.96509 3.6458,-2.8106 3.9675,-5.3845 3.4007,-0.1417 0.97272,-3.1355 -1.1336,-7.0848 -3.5424,-3.6841 -13.319,1.7004 -13.319,1.7004 2.5505,5.6679 -2.5505,11.619 -2.5505,11.619 z" /></g><g
         id="g3124"
         style="stroke-width:0.394293"><path
           id="path3010"
           style="color:#000000"
           stroke-width="0.197147"
           stroke="#000000"
           d="m 133.94,20.438 c -3.7292,0.67804 -7.5312,2.7812 -7.5312,2.7812 1.1661,2.5912 0.72018,5.2298 -0.0937,7.3438 1.8482,-0.27321 3.9084,-0.9776 4.0625,-2.75 0,0 -1.0792,-1.1851 -0.9375,-2.5312 0,0 -0.49255,-6.2511 3.6875,-0.9375 l 0.4375,1 1.3438,-0.21875 c -0.81437,-1.5512 -0.93874,-3.3513 -0.875,-4.6875 -0.0305,0.0054 -0.0633,-0.0055 -0.0937,0 z" /><g
           id="g3023"
           style="stroke-width:0.394293"><g
             id="g3017"
             style="stroke-width:0.394293"><path
               id="path3008"
               style="color:#000000;stroke-width:0.394293"
               d="m 133.47,28.156 c 1.4834,3.2355 2.0648,7.4864 2.3125,10 1.6834,-2.1625 1.0938,-4.1875 1.0938,-4.1875 3.6828,0.62868 4.12,-0.74791 4.0625,-2.5 -4.0066,1.392 -7.4742,-3.3536 -7.4688,-3.3125 z" /><path
               id="path3015"
               style="color:#000000;stroke-width:0.394293"
               d="m 139.72,27.754 c 0.70136,0.90175 2.4047,0.45088 2.4047,0.45088 C 143.5274,26.80218 139.72,27.754 139.72,27.754 Z" /></g><path
             id="path3021"
             style="color:#000000;stroke-width:0.394293"
             d="m 137.42,24.147 c 2.1041,1.6532 2.9557,0.40078 2.9557,0.40078 C 139.47395,23.69613 137.42,24.147 137.42,24.147 Z" /></g></g><path
         id="path3026"
         style="color:#000000"
         stroke-width="0.59144"
         stroke="#000000"
         d="m 127.24,32.28 c -1.9838,-0.56679 -3.4007,1.9838 -3.4007,1.9838 -11.336,9.352 -3.1173,34.007 -3.1173,34.007 -2.0103,17.941 4.4986,35.342 2.8339,55.262 3.4007,0.56679 6.518,-2.2671 6.518,-2.2671 v 3.1173 c 7.8104,1.2134 20.104,-22.044 19.554,-29.189 2.5505,1.1336 6.8014,3.4007 6.8014,3.4007 -1.7004,0.85018 1.1336,2.1254 1.1336,2.1254 -4.3926,0 -11.884,24.123 -11.884,24.123 -7.6705,4.0747 -2.0026,9.1758 -2.0026,9.1758 4.5343,0.28339 9.6354,3.9675 9.6354,3.9675 l 7.935,-0.56678 c -7.6516,-5.3845 -6.2346,-7.6516 -6.2346,-7.6516 l 1.9838,0.28339 c 0.28339,-5.1011 9.9188,-24.655 9.9188,-24.655 -0.85018,9.0686 3.6841,26.922 3.6841,26.922 -3.1173,4.8177 3.9675,10.202 3.9675,10.202 2.5505,-0.28339 6.8014,-3.9675 6.8014,-3.9675 l -0.56678,-1.1336 c 7.3682,-0.2834 13.886,-7.935 13.886,-7.935 0.85018,-3.9675 -10.486,0.85018 -10.486,0.85018 -5.1011,0 -5.9512,-5.1011 -5.9512,-5.1011 0.85018,-13.319 0.56679,-35.708 0.56679,-35.708 1.1336,-5.3845 -17.992,-11.133 -20.688,-13.886 0.56678,-1.417 2.2671,-7.6516 2.2671,-7.6516 -5.3845,-2.8339 -14.634,-9.2386 -18.137,-10.202 -3.4007,-21.821 -15.02,-25.505 -15.02,-25.505 z" /><path
         id="path3028"
         style="color:#000000;stroke-width:0.155467"
         fill="#ffffff"
         d="m 170.32,136.85 c 8.2184,0.56679 11.052,-6.518 11.052,-6.518 -4.5343,2.5505 -10.769,2.8339 -10.769,2.8339 -3.6841,2.5505 -0.28339,3.6841 -0.28339,3.6841 z" /><g
         id="g3114"
         style="stroke-width:0.394293"><path
           id="path3030"
           style="color:#000000"
           d="m 136.26,41.08 c 2.7426,-6.1777 -10.22,-11.623 -10.22,-11.623 -4.4086,-0.40078 -1.4027,4.0078 -1.4027,4.0078 4.1696,-2.6839 11.623,7.6148 11.623,7.6148 z"
           stroke="#000000"
           stroke-width="0.197147"
           fill="#ffffff" /><path
           id="path3032"
           style="color:#000000;stroke-width:0.394293"
           d="m 136.45,41.632 c 4.2509,-4.2509 -0.42508,-3.9675 -0.42508,-3.9675 z" /></g><path
         id="path3040"
         style="color:#000000"
         d="m 163.12,75.747 c 1.6031,0.20039 3.0058,-0.20039 3.0058,-0.20039 1.8035,4.6089 5.0097,2.4047 5.0097,2.4047 4.2082,-4.609 2.0039,-6.0117 2.0039,-6.0117 -0.20039,-3.8074 -9.4183,-1.4027 -9.4183,-1.4027 z"
         stroke="#000000"
         stroke-width="0.197147"
         fill="#cccccf" /><path
         id="path3038"
         style="color:#000000"
         d="m 159.55,67.704 c 7.0848,0 5.3845,3.1173 5.3845,3.1173 -0.70848,5.3845 -3.259,6.8014 -3.259,6.8014 -3.6841,0 -4.2509,-1.417 -4.2509,-1.417 z"
         stroke="#000000"
         stroke-width="0.197147"
         fill="#ffffff" /></g></g></svg>
