<?xml version="1.0" encoding="UTF-8" standalone="no"?>
<!-- Created with Inkscape (http://www.inkscape.org/) -->

<svg
   xmlns:dc="http://purl.org/dc/elements/1.1/"
   xmlns:cc="http://creativecommons.org/ns#"
   xmlns:rdf="http://www.w3.org/1999/02/22-rdf-syntax-ns#"
   xmlns:svg="http://www.w3.org/2000/svg"
   xmlns="http://www.w3.org/2000/svg"
   xmlns:sodipodi="http://sodipodi.sourceforge.net/DTD/sodipodi-0.dtd"
   xmlns:inkscape="http://www.inkscape.org/namespaces/inkscape"
   width="231.61714"
   height="598.75641"
   id="svg3785"
   version="1.1"
   inkscape:version="0.48.4 r9939"
   sodipodi:docname="carnation_928345_c.svg">
  <defs
     id="defs3787" />
  <sodipodi:namedview
     id="base"
     pagecolor="#ffffff"
     bordercolor="#666666"
     borderopacity="1.0"
     inkscape:pageopacity="0.0"
     inkscape:pageshadow="2"
     inkscape:zoom="0.25952886"
     inkscape:cx="65.507033"
     inkscape:cy="241.44531"
     inkscape:document-units="px"
     inkscape:current-layer="layer1"
     showgrid="false"
     fit-margin-top="0"
     fit-margin-left="0"
     fit-margin-right="0"
     fit-margin-bottom="0"
     inkscape:window-width="515"
     inkscape:window-height="728"
     inkscape:window-x="763"
     inkscape:window-y="26"
     inkscape:window-maximized="0" />
  <metadata
     id="metadata3790">
    <rdf:RDF>
      <cc:Work
         rdf:about="">
        <dc:format>image/svg+xml</dc:format>
        <dc:type
           rdf:resource="http://purl.org/dc/dcmitype/StillImage" />
        <dc:title></dc:title>
      </cc:Work>
    </rdf:RDF>
  </metadata>
  <g
     inkscape:label="Layer 1"
     inkscape:groupmode="layer"
     id="layer1"
     transform="translate(-207.25592,-365.90636)">
    <g
       id="g4035">
      <g
         id="g4027">
        <path
           style="fill:#008000;stroke:none"
           d="m 78.59375,138.75 3.3125,34.1875 13.15625,14.71875 1.03125,3.875 -3.5625,124.25 0.46875,252.375 7.79517,0.5 L 100.875,317 l 3.15625,-66.40625 7.53125,-58.3125 14.6875,-4.625 16.8125,-24.6875 -13,-8.25 L 98,143.625 z"
           transform="translate(200.53324,369.03456)"
           id="path3949"
           inkscape:connector-curvature="0"
           sodipodi:nodetypes="ccccccccccccccc" />
        <g
           id="g4021">
          <path
             sodipodi:nodetypes="cccccc"
             inkscape:connector-curvature="0"
             id="path4004"
             d="m 296.663,641.742 -14.65897,-31.03449 -17.3872,-8.92598 2.05538,-4.86609 22.95051,11.67132 10.51659,21.44709"
             style="fill:#008000;stroke:none" />
          <path
             inkscape:connector-curvature="0"
             id="path4006"
             d="m 297.74343,627.4113 9.87601,-30.62313 32.98479,-9.72266 3.23748,6.13417 -29.2225,11.50157 -12.44214,40.91831"
             style="fill:#008000;stroke:none" />
          <path
             style="fill:#008000;stroke:none"
             d="m 296.17592,881.14369 -21.0944,-26.90976 -36.43279,2.44154 -0.97043,7.30988 33.33871,0.71739 27.43492,36.23407"
             id="path4008"
             inkscape:connector-curvature="0" />
          <path
             sodipodi:nodetypes="cccccc"
             style="fill:#008000;stroke:none"
             d="m 300.75727,813.91915 19.18951,-37.88181 26.44771,-13.57732 -3.12644,-7.40182 -34.91007,17.75327 -11.22879,26.4929"
             id="path4010"
             inkscape:connector-curvature="0" />
        </g>
      </g>
      <g
         id="g4017">
        <path
           style="fill:#d40000;stroke:none"
           d="m 112.59375,23.84375 -0.53125,11.09375 -3.09375,-9.78125 -1.53125,0.25 4.625,31.71875 -8.5,-24.5 -3.625,0 6.21875,52.625 L 81.375,32.375 71.3125,35.96875 83.1875,59.71875 63.84375,32.625 46.5625,44.5 l 7.21875,10.5625 -8.5,-4.625 L 32.625,59.71875 52.75,77 34.1875,67.1875 23.59375,77 l 5.9375,5.15625 -5.40625,-1.5625 -2.84375,2.0625 35.0625,21.40625 -36.09375,-8.5 -0.25,2.59375 15.96875,6.1875 -17.28125,-4.125 -1.53125,10.8125 21.90625,9.5625 -16.5,-1.03125 -5.15625,10.3125 20.625,5.40625 40.5,2.84375 0.0625,0.625 19.40625,4.875 32.0625,11.09375 13,8.25 0.21875,-0.34375 12.125,0.25 50.0625,26.59375 6.6875,-10.59375 L 199,173.21875 l 20.375,3.84375 -0.25,-3.84375 -23.21875,-8 -0.5,-1.03125 31.96875,-1.03125 0.53125,-4.40625 -16.25,-6.9375 12.625,-1.5625 -8.5,-15.46875 -44.375,-1.03125 49.28125,-12.90625 -0.78125,-21.9375 -21.40625,3.875 14.9375,-10.3125 -3.84375,-7.75 -21.9375,11.375 L 185.0625,95.5625 215.5,72.59375 205.71875,61 192.5625,72.59375 l 3.875,-12.625 -2.84375,-1.5625 -3.875,8 2.84375,-9.78125 -4.375,-4.90625 L 171.90625,73.375 178.375,45.53125 168.5625,35.1875 142,77.75 147.9375,30.5625 131.15625,27.71875 128.0625,39.59375 126.25,24.625 112.59375,23.84375 z"
           transform="translate(200.53324,369.03456)"
           id="path3995"
           inkscape:connector-curvature="0" />
        <path
           style="fill:#d40000;stroke:none"
           d="M 93.875,120.28125 75.25,149 l 3.40625,2.8125 21,-23.3125 -13.46875,23.25 16.125,4.75 6.34375,-12.53125 -1.9375,12.71875 9.125,3.53125 2.03125,-6.0625 4.375,-9.09375 -1.84375,13.90625 16,5.1875 2,-26.78125 4.15625,31.125 4.40625,-0.40625 0.875,-34.21875 -32.625,-7.6875 -0.59375,2.125 -20.75,-8.03125 z"
           transform="translate(200.53324,369.03456)"
           id="path4012"
           inkscape:connector-curvature="0" />
      </g>
    </g>
  </g>
</svg>
